<svg xmlns="http://www.w3.org/2000/svg" viewBox="0 0 120 120" width="120" height="120">
  <!-- 바깥 꽃잎 -->
  <g fill="#d4c5a9" opacity="0.9">
    <ellipse cx="60" cy="20" rx="8" ry="20" transform="rotate(0,60,60)"/>
    <ellipse cx="60" cy="20" rx="8" ry="20" transform="rotate(30,60,60)"/>
    <ellipse cx="60" cy="20" rx="8" ry="20" transform="rotate(60,60,60)"/>
    <ellipse cx="60" cy="20" rx="8" ry="20" transform="rotate(90,60,60)"/>
    <ellipse cx="60" cy="20" rx="8" ry="20" transform="rotate(120,60,60)"/>
    <ellipse cx="60" cy="20" rx="8" ry="20" transform="rotate(150,60,60)"/>
    <ellipse cx="60" cy="20" rx="8" ry="20" transform="rotate(180,60,60)"/>
    <ellipse cx="60" cy="20" rx="8" ry="20" transform="rotate(210,60,60)"/>
    <ellipse cx="60" cy="20" rx="8" ry="20" transform="rotate(240,60,60)"/>
    <ellipse cx="60" cy="20" rx="8" ry="20" transform="rotate(270,60,60)"/>
    <ellipse cx="60" cy="20" rx="8" ry="20" transform="rotate(300,60,60)"/>
    <ellipse cx="60" cy="20" rx="8" ry="20" transform="rotate(330,60,60)"/>
  </g>
  <!-- 안쪽 꽃잎 -->
  <g fill="#e0d8cc" opacity="0.95">
    <ellipse cx="60" cy="30" rx="6" ry="15" transform="rotate(15,60,60)"/>
    <ellipse cx="60" cy="30" rx="6" ry="15" transform="rotate(45,60,60)"/>
    <ellipse cx="60" cy="30" rx="6" ry="15" transform="rotate(75,60,60)"/>
    <ellipse cx="60" cy="30" rx="6" ry="15" transform="rotate(105,60,60)"/>
    <ellipse cx="60" cy="30" rx="6" ry="15" transform="rotate(135,60,60)"/>
    <ellipse cx="60" cy="30" rx="6" ry="15" transform="rotate(165,60,60)"/>
    <ellipse cx="60" cy="30" rx="6" ry="15" transform="rotate(195,60,60)"/>
    <ellipse cx="60" cy="30" rx="6" ry="15" transform="rotate(225,60,60)"/>
    <ellipse cx="60" cy="30" rx="6" ry="15" transform="rotate(255,60,60)"/>
    <ellipse cx="60" cy="30" rx="6" ry="15" transform="rotate(285,60,60)"/>
    <ellipse cx="60" cy="30" rx="6" ry="15" transform="rotate(315,60,60)"/>
    <ellipse cx="60" cy="30" rx="6" ry="15" transform="rotate(345,60,60)"/>
  </g>
  <!-- 중심 -->
  <circle cx="60" cy="60" r="10" fill="#b09a7a"/>
  <circle cx="60" cy="60" r="6" fill="#c4b08a"/>
</svg>
