<svg xmlns="http://www.w3.org/2000/svg" viewBox="0 0 192 192" width="192" height="192">
  <rect width="192" height="192" rx="40" fill="#1a1a2e"/>
  <!-- 국화 바깥 꽃잎 -->
  <g fill="#d4c5a9" opacity="0.9" transform="translate(96,65)">
    <ellipse cx="0" cy="-25" rx="5" ry="14" transform="rotate(0)"/>
    <ellipse cx="0" cy="-25" rx="5" ry="14" transform="rotate(30)"/>
    <ellipse cx="0" cy="-25" rx="5" ry="14" transform="rotate(60)"/>
    <ellipse cx="0" cy="-25" rx="5" ry="14" transform="rotate(90)"/>
    <ellipse cx="0" cy="-25" rx="5" ry="14" transform="rotate(120)"/>
    <ellipse cx="0" cy="-25" rx="5" ry="14" transform="rotate(150)"/>
    <ellipse cx="0" cy="-25" rx="5" ry="14" transform="rotate(180)"/>
    <ellipse cx="0" cy="-25" rx="5" ry="14" transform="rotate(210)"/>
    <ellipse cx="0" cy="-25" rx="5" ry="14" transform="rotate(240)"/>
    <ellipse cx="0" cy="-25" rx="5" ry="14" transform="rotate(270)"/>
    <ellipse cx="0" cy="-25" rx="5" ry="14" transform="rotate(300)"/>
    <ellipse cx="0" cy="-25" rx="5" ry="14" transform="rotate(330)"/>
  </g>
  <!-- 국화 안쪽 꽃잎 -->
  <g fill="#e0d8cc" opacity="0.95" transform="translate(96,65)">
    <ellipse cx="0" cy="-18" rx="4" ry="10" transform="rotate(15)"/>
    <ellipse cx="0" cy="-18" rx="4" ry="10" transform="rotate(45)"/>
    <ellipse cx="0" cy="-18" rx="4" ry="10" transform="rotate(75)"/>
    <ellipse cx="0" cy="-18" rx="4" ry="10" transform="rotate(105)"/>
    <ellipse cx="0" cy="-18" rx="4" ry="10" transform="rotate(135)"/>
    <ellipse cx="0" cy="-18" rx="4" ry="10" transform="rotate(165)"/>
    <ellipse cx="0" cy="-18" rx="4" ry="10" transform="rotate(195)"/>
    <ellipse cx="0" cy="-18" rx="4" ry="10" transform="rotate(225)"/>
    <ellipse cx="0" cy="-18" rx="4" ry="10" transform="rotate(255)"/>
    <ellipse cx="0" cy="-18" rx="4" ry="10" transform="rotate(285)"/>
    <ellipse cx="0" cy="-18" rx="4" ry="10" transform="rotate(315)"/>
    <ellipse cx="0" cy="-18" rx="4" ry="10" transform="rotate(345)"/>
  </g>
  <!-- 중심 -->
  <circle cx="96" cy="65" r="7" fill="#b09a7a"/>
  <circle cx="96" cy="65" r="4" fill="#c4b08a"/>
  <!-- 텍스트 -->
  <text x="96" y="130" text-anchor="middle" font-family="sans-serif" font-size="28" font-weight="bold" fill="#d4c5a9">부고</text>
  <text x="96" y="158" text-anchor="middle" font-family="sans-serif" font-size="16" fill="#8b7355">알림</text>
</svg>
